<?xml version="1.0" encoding="UTF-8"?><svg xmlns="http://www.w3.org/2000/svg" xmlns:xlink="http://www.w3.org/1999/xlink" width="30" zoomAndPan="magnify" viewBox="0 0 30 30.000001" height="30.000001" preserveAspectRatio="xMidYMid meet" version="1.0"><defs><clipPath id="clip-0"><path d="M 1.429688 4.285156 L 29.515625 4.285156 L 29.515625 22.710938 L 1.429688 22.710938 Z M 1.429688 4.285156 " clip-rule="nonzero"/></clipPath><clipPath id="clip-1"><path d="M 23.441406 22.820312 L 25.824219 22.820312 L 25.824219 26.179688 L 23.441406 26.179688 Z M 23.441406 22.820312 " clip-rule="nonzero"/></clipPath><clipPath id="clip-2"><path d="M 1.429688 3.824219 L 29.515625 3.824219 L 29.515625 22.25 L 1.429688 22.25 Z M 1.429688 3.824219 " clip-rule="nonzero"/></clipPath><clipPath id="clip-3"><path d="M 1.414062 11 L 2 11 L 2 14 L 1.414062 14 Z M 1.414062 11 " clip-rule="nonzero"/></clipPath><clipPath id="clip-4"><path d="M 1.414062 12 L 2 12 L 2 15 L 1.414062 15 Z M 1.414062 12 " clip-rule="nonzero"/></clipPath><clipPath id="clip-5"><path d="M 1.414062 13 L 3 13 L 3 16 L 1.414062 16 Z M 1.414062 13 " clip-rule="nonzero"/></clipPath><clipPath id="clip-6"><path d="M 29.382812 13.570312 L 29.515625 13.570312 L 29.515625 15.589844 L 29.382812 15.589844 Z M 29.382812 13.570312 " clip-rule="nonzero"/></clipPath><clipPath id="clip-7"><path d="M 29 14 L 29.515625 14 L 29.515625 17 L 29 17 Z M 29 14 " clip-rule="nonzero"/></clipPath><clipPath id="clip-8"><path d="M 28 15 L 29.515625 15 L 29.515625 19 L 28 19 Z M 28 15 " clip-rule="nonzero"/></clipPath><clipPath id="clip-9"><path d="M 1.429688 3.683594 L 29.515625 3.683594 L 29.515625 20.761719 L 1.429688 20.761719 Z M 1.429688 3.683594 " clip-rule="nonzero"/></clipPath></defs><g clip-path="url(#clip-0)"><path fill="rgb(85.099792%, 85.099792%, 85.099792%)" d="M 24.414062 22.707031 L 23.21875 22.117188 L 22.445312 22.441406 L 21.75 22.175781 L 20.707031 21.941406 L 20.050781 21.4375 L 19.894531 20.878906 L 19.394531 20.40625 L 18.390625 19.964844 L 17.730469 19.964844 L 16.882812 19.609375 L 16.804688 19.199219 L 15.605469 18.019531 L 14.527344 17.929688 L 13.714844 17.632812 L 12.324219 17.753906 L 11.242188 18.105469 L 10.199219 18.195312 L 9.308594 18.519531 L 8.5 19.136719 L 7.378906 19.136719 L 6.21875 19.167969 L 5.71875 19.523438 L 4.75 19.964844 L 3.671875 19.964844 L 2.9375 19.582031 L 2.550781 19.199219 L 2.550781 17.847656 L 2.816406 17.570312 L 2.511719 17.105469 L 2.511719 16.335938 L 2.125 15.863281 L 1.96875 15.273438 L 1.429688 14.597656 L 1.429688 11.890625 L 1.699219 10.652344 L 3.398438 9.945312 L 4.25 9.917969 L 5.445312 9.503906 L 7.03125 9.121094 L 7.648438 8.441406 L 7.648438 7.675781 L 9.195312 7.027344 L 9.425781 6.671875 L 10.46875 5.964844 L 11.398438 6.140625 L 11.667969 6.554688 L 12.324219 6.523438 L 12.75 6.082031 L 13.097656 5.257812 L 13.097656 4.667969 L 14.949219 4.578125 L 16.300781 4.992188 L 17.65625 4.902344 L 17.964844 5.226562 L 17.964844 6.574219 L 17.6875 6.953125 L 18.078125 7.234375 L 19.429688 7.734375 L 20.398438 8.117188 L 20.746094 7.617188 L 21.246094 6.199219 L 21.480469 5.140625 L 21.480469 4.285156 L 21.980469 4.285156 L 22.597656 5.316406 L 22.871094 6.199219 L 23.679688 6.523438 L 23.875 7.320312 L 24.261719 7.703125 L 24.570312 8.648438 L 26.230469 9.652344 L 26.925781 10.652344 L 27.273438 10.652344 L 27.660156 10.917969 L 27.660156 11.300781 L 29.050781 12.570312 L 29.320312 13.308594 L 29.707031 14.191406 L 29.707031 15.539062 L 29.398438 16.191406 L 29.011719 17.488281 L 28.085938 18.753906 L 27.042969 20.847656 L 26.734375 21.761719 L 25.574219 21.882812 L 24.722656 22.53125 L 24.414062 22.707031 " fill-opacity="1" fill-rule="nonzero"/></g><g clip-path="url(#clip-1)"><path fill="rgb(85.099792%, 85.099792%, 85.099792%)" d="M 24.878906 26.179688 L 24.414062 26.179688 L 24.222656 25.914062 L 23.757812 25.589844 L 23.757812 25.058594 L 23.449219 24.53125 L 23.449219 22.828125 L 23.835938 22.828125 L 24.492188 23.179688 L 25.34375 22.972656 L 25.804688 22.972656 L 25.804688 25.179688 L 25.109375 25.855469 L 24.878906 26.179688 " fill-opacity="1" fill-rule="nonzero"/></g><g clip-path="url(#clip-2)"><path fill="rgb(30.979919%, 74.899292%, 50.979614%)" d="M 29.320312 12.847656 L 29.050781 12.109375 L 27.660156 10.839844 L 27.660156 10.457031 L 27.273438 10.191406 L 26.925781 10.191406 L 26.230469 9.191406 L 24.570312 8.1875 L 24.261719 7.242188 L 23.875 6.859375 L 23.679688 6.0625 L 22.871094 5.738281 L 22.597656 4.855469 L 21.980469 3.824219 L 21.480469 3.824219 L 21.480469 4.679688 L 21.246094 5.738281 L 20.746094 7.15625 L 20.398438 7.65625 L 19.429688 7.273438 L 18.078125 6.773438 L 17.6875 6.496094 L 17.964844 6.117188 L 17.964844 4.765625 L 17.65625 4.441406 L 16.300781 4.53125 L 14.949219 4.117188 L 13.097656 4.207031 L 13.097656 4.796875 L 12.75 5.621094 L 12.324219 6.0625 L 11.667969 6.09375 L 11.398438 5.679688 L 10.46875 5.503906 L 9.425781 6.210938 L 9.195312 6.566406 L 7.648438 7.214844 L 7.648438 7.980469 L 7.03125 8.660156 L 5.445312 9.042969 L 4.25 9.457031 L 3.398438 9.484375 L 1.699219 10.191406 L 1.429688 11.429688 L 1.429688 14.136719 L 1.96875 14.816406 L 2.125 15.40625 L 2.511719 15.875 L 2.511719 16.644531 L 2.816406 17.109375 L 2.550781 17.386719 L 2.550781 18.738281 L 2.9375 19.121094 L 3.671875 19.503906 L 4.75 19.503906 L 5.71875 19.0625 L 6.21875 18.707031 L 7.378906 18.679688 L 8.5 18.679688 L 9.308594 18.058594 L 10.199219 17.734375 L 11.242188 17.644531 L 12.324219 17.292969 L 13.714844 17.175781 L 14.527344 17.46875 L 15.605469 17.558594 L 16.804688 18.738281 L 16.882812 19.148438 L 17.730469 19.503906 L 18.390625 19.503906 L 19.394531 19.945312 L 19.894531 20.417969 L 20.050781 20.976562 L 20.707031 21.480469 L 21.75 21.714844 L 22.445312 21.980469 L 23.21875 21.65625 L 24.414062 22.246094 L 24.722656 22.070312 L 25.574219 21.421875 L 26.734375 21.300781 L 27.042969 20.386719 L 28.085938 18.292969 L 29.011719 17.027344 L 29.398438 15.730469 L 29.707031 15.082031 L 29.707031 13.730469 L 29.320312 12.847656 " fill-opacity="1" fill-rule="nonzero"/></g><path fill="rgb(30.979919%, 74.899292%, 50.979614%)" d="M 24.492188 22.71875 L 23.835938 22.367188 L 23.449219 22.367188 L 23.449219 24.070312 L 23.757812 24.597656 L 23.757812 25.128906 L 24.222656 25.453125 L 24.414062 25.71875 L 24.878906 25.71875 L 25.109375 25.394531 L 25.804688 24.71875 L 25.804688 22.515625 L 25.34375 22.515625 L 24.492188 22.71875 " fill-opacity="1" fill-rule="nonzero"/><path fill="rgb(34.509277%, 86.669922%, 64.309692%)" d="M 17.964844 4.625 L 17.964844 5.972656 L 17.035156 7.242188 L 17.035156 5.894531 L 17.964844 4.625 " fill-opacity="1" fill-rule="nonzero"/><g clip-path="url(#clip-3)"><path fill="rgb(34.509277%, 86.669922%, 64.309692%)" d="M 1.699219 12.117188 L 1.699219 13.464844 L 1.429688 12.636719 L 1.429688 11.289062 L 1.699219 12.117188 " fill-opacity="1" fill-rule="nonzero"/></g><g clip-path="url(#clip-4)"><path fill="rgb(34.509277%, 86.669922%, 64.309692%)" d="M 1.96875 13.324219 L 1.96875 14.671875 L 1.429688 13.996094 L 1.429688 12.644531 L 1.96875 13.324219 " fill-opacity="1" fill-rule="nonzero"/></g><g clip-path="url(#clip-5)"><path fill="rgb(35.289001%, 89.7995%, 68.629456%)" d="M 2.125 13.914062 L 2.125 15.261719 L 1.96875 14.671875 L 1.96875 13.324219 L 2.125 13.914062 " fill-opacity="1" fill-rule="nonzero"/></g><g clip-path="url(#clip-6)"><path fill="rgb(35.289001%, 89.7995%, 68.629456%)" d="M 29.707031 13.589844 L 29.707031 14.9375 L 29.398438 15.585938 L 29.398438 14.238281 L 29.707031 13.589844 " fill-opacity="1" fill-rule="nonzero"/></g><path fill="rgb(35.289001%, 89.7995%, 68.629456%)" d="M 2.511719 14.386719 L 2.511719 15.734375 L 2.125 15.261719 L 2.125 13.914062 L 2.511719 14.386719 " fill-opacity="1" fill-rule="nonzero"/><g clip-path="url(#clip-7)"><path fill="rgb(35.289001%, 89.7995%, 68.629456%)" d="M 29.398438 14.238281 L 29.398438 15.585938 L 29.011719 16.882812 L 29.011719 15.535156 L 29.398438 14.238281 " fill-opacity="1" fill-rule="nonzero"/></g><path fill="rgb(34.509277%, 86.669922%, 64.309692%)" d="M 13.714844 15.683594 L 13.714844 17.03125 L 12.324219 17.148438 L 12.324219 15.800781 L 13.714844 15.683594 " fill-opacity="1" fill-rule="nonzero"/><path fill="rgb(35.289001%, 89.7995%, 68.629456%)" d="M 14.527344 15.976562 L 14.527344 17.328125 L 13.714844 17.03125 L 13.714844 15.683594 L 14.527344 15.976562 " fill-opacity="1" fill-rule="nonzero"/><path fill="rgb(34.509277%, 86.669922%, 64.309692%)" d="M 15.605469 16.066406 L 15.605469 17.414062 L 14.527344 17.328125 L 14.527344 15.976562 L 15.605469 16.066406 " fill-opacity="1" fill-rule="nonzero"/><path fill="rgb(34.509277%, 86.669922%, 64.309692%)" d="M 3.128906 16.097656 L 3.128906 17.445312 L 2.511719 16.5 L 2.511719 15.152344 L 3.128906 16.097656 " fill-opacity="1" fill-rule="nonzero"/><path fill="rgb(35.289001%, 89.7995%, 68.629456%)" d="M 12.324219 15.800781 L 12.324219 17.148438 L 11.242188 17.503906 L 11.242188 16.15625 L 12.324219 15.800781 " fill-opacity="1" fill-rule="nonzero"/><path fill="rgb(34.509277%, 86.669922%, 64.309692%)" d="M 11.242188 16.15625 L 11.242188 17.503906 L 10.199219 17.59375 L 10.199219 16.242188 L 11.242188 16.15625 " fill-opacity="1" fill-rule="nonzero"/><path fill="rgb(35.289001%, 89.7995%, 68.629456%)" d="M 10.199219 16.242188 L 10.199219 17.59375 L 9.308594 17.917969 L 9.308594 16.566406 L 10.199219 16.242188 " fill-opacity="1" fill-rule="nonzero"/><g clip-path="url(#clip-8)"><path fill="rgb(34.509277%, 86.669922%, 64.309692%)" d="M 29.011719 15.535156 L 29.011719 16.882812 L 28.085938 18.152344 L 28.085938 16.804688 L 29.011719 15.535156 " fill-opacity="1" fill-rule="nonzero"/></g><path fill="rgb(35.289001%, 89.7995%, 68.629456%)" d="M 9.308594 16.566406 L 9.308594 17.917969 L 8.5 18.535156 L 8.5 17.1875 L 9.308594 16.566406 " fill-opacity="1" fill-rule="nonzero"/><path fill="rgb(34.509277%, 86.669922%, 64.309692%)" d="M 8.5 17.1875 L 8.5 18.535156 L 7.378906 18.535156 L 7.378906 17.1875 L 8.5 17.1875 " fill-opacity="1" fill-rule="nonzero"/><path fill="rgb(34.509277%, 86.669922%, 64.309692%)" d="M 7.378906 17.1875 L 7.378906 18.535156 L 6.21875 18.566406 L 6.21875 17.21875 L 7.378906 17.1875 " fill-opacity="1" fill-rule="nonzero"/><path fill="rgb(35.289001%, 89.7995%, 68.629456%)" d="M 16.804688 17.246094 L 16.804688 18.59375 L 15.605469 17.414062 L 15.605469 16.066406 L 16.804688 17.246094 " fill-opacity="1" fill-rule="nonzero"/><path fill="rgb(35.289001%, 89.7995%, 68.629456%)" d="M 6.21875 17.21875 L 6.21875 18.566406 L 5.71875 18.917969 L 5.71875 17.570312 L 6.21875 17.21875 " fill-opacity="1" fill-rule="nonzero"/><path fill="rgb(35.289001%, 89.7995%, 68.629456%)" d="M 2.9375 17.628906 L 2.9375 18.976562 L 2.550781 18.59375 L 2.550781 17.246094 L 2.9375 17.628906 " fill-opacity="1" fill-rule="nonzero"/><path fill="rgb(35.289001%, 89.7995%, 68.629456%)" d="M 16.882812 17.660156 L 16.882812 19.007812 L 16.804688 18.59375 L 16.804688 17.246094 L 16.882812 17.660156 " fill-opacity="1" fill-rule="nonzero"/><path fill="rgb(34.509277%, 86.669922%, 64.309692%)" d="M 4.75 18.011719 L 4.75 19.363281 L 3.671875 19.363281 L 3.671875 18.011719 L 4.75 18.011719 " fill-opacity="1" fill-rule="nonzero"/><path fill="rgb(35.289001%, 89.7995%, 68.629456%)" d="M 3.671875 18.011719 L 3.671875 19.363281 L 2.9375 18.976562 L 2.9375 17.628906 L 3.671875 18.011719 " fill-opacity="1" fill-rule="nonzero"/><path fill="rgb(35.289001%, 89.7995%, 68.629456%)" d="M 5.71875 17.570312 L 5.71875 18.917969 L 4.75 19.363281 L 4.75 18.011719 L 5.71875 17.570312 " fill-opacity="1" fill-rule="nonzero"/><path fill="rgb(34.509277%, 86.669922%, 64.309692%)" d="M 18.390625 18.011719 L 18.390625 19.363281 L 17.730469 19.363281 L 17.730469 18.011719 L 18.390625 18.011719 " fill-opacity="1" fill-rule="nonzero"/><path fill="rgb(34.509277%, 86.669922%, 64.309692%)" d="M 17.730469 18.011719 L 17.730469 19.363281 L 16.882812 19.007812 L 16.882812 17.660156 L 17.730469 18.011719 " fill-opacity="1" fill-rule="nonzero"/><path fill="rgb(35.289001%, 89.7995%, 68.629456%)" d="M 19.394531 18.457031 L 19.394531 19.804688 L 18.390625 19.363281 L 18.390625 18.011719 L 19.394531 18.457031 " fill-opacity="1" fill-rule="nonzero"/><path fill="rgb(35.289001%, 89.7995%, 68.629456%)" d="M 28.085938 16.804688 L 28.085938 18.152344 L 27.042969 20.246094 L 27.042969 18.898438 L 28.085938 16.804688 " fill-opacity="1" fill-rule="nonzero"/><path fill="rgb(34.509277%, 86.669922%, 64.309692%)" d="M 19.894531 18.925781 L 19.894531 20.277344 L 19.394531 19.804688 L 19.394531 18.457031 L 19.894531 18.925781 " fill-opacity="1" fill-rule="nonzero"/><path fill="rgb(35.289001%, 89.7995%, 68.629456%)" d="M 20.050781 19.488281 L 20.050781 20.835938 L 19.894531 20.277344 L 19.894531 18.925781 L 20.050781 19.488281 " fill-opacity="1" fill-rule="nonzero"/><path fill="rgb(35.289001%, 89.7995%, 68.629456%)" d="M 27.042969 18.898438 L 27.042969 20.246094 L 26.734375 21.160156 L 26.734375 19.8125 L 27.042969 18.898438 " fill-opacity="1" fill-rule="nonzero"/><path fill="rgb(34.509277%, 86.669922%, 64.309692%)" d="M 26.734375 19.8125 L 26.734375 21.160156 L 25.574219 21.277344 L 25.574219 19.929688 L 26.734375 19.8125 " fill-opacity="1" fill-rule="nonzero"/><path fill="rgb(35.289001%, 89.7995%, 68.629456%)" d="M 20.707031 19.988281 L 20.707031 21.335938 L 20.050781 20.835938 L 20.050781 19.488281 L 20.707031 19.988281 " fill-opacity="1" fill-rule="nonzero"/><path fill="rgb(34.509277%, 86.669922%, 64.309692%)" d="M 21.75 20.226562 L 21.75 21.574219 L 20.707031 21.335938 L 20.707031 19.988281 L 21.75 20.226562 " fill-opacity="1" fill-rule="nonzero"/><path fill="rgb(35.289001%, 89.7995%, 68.629456%)" d="M 22.445312 20.492188 L 22.445312 21.839844 L 21.75 21.574219 L 21.75 20.226562 L 22.445312 20.492188 " fill-opacity="1" fill-rule="nonzero"/><path fill="rgb(35.289001%, 89.7995%, 68.629456%)" d="M 23.21875 20.167969 L 23.21875 21.515625 L 22.445312 21.839844 L 22.445312 20.492188 L 23.21875 20.167969 " fill-opacity="1" fill-rule="nonzero"/><path fill="rgb(35.289001%, 89.7995%, 68.629456%)" d="M 25.574219 19.929688 L 25.574219 21.277344 L 24.722656 21.925781 L 24.722656 20.578125 L 25.574219 19.929688 " fill-opacity="1" fill-rule="nonzero"/><path fill="rgb(34.509277%, 86.669922%, 64.309692%)" d="M 24.414062 20.753906 L 24.414062 22.105469 L 23.21875 21.515625 L 23.21875 20.167969 L 24.414062 20.753906 " fill-opacity="1" fill-rule="nonzero"/><path fill="rgb(35.289001%, 89.7995%, 68.629456%)" d="M 24.722656 20.578125 L 24.722656 21.925781 L 24.414062 22.105469 L 24.414062 20.753906 L 24.722656 20.578125 " fill-opacity="1" fill-rule="nonzero"/><path fill="rgb(34.509277%, 86.669922%, 64.309692%)" d="M 23.757812 23.109375 L 23.757812 24.457031 L 23.449219 23.925781 L 23.449219 22.578125 L 23.757812 23.109375 " fill-opacity="1" fill-rule="nonzero"/><path fill="rgb(35.289001%, 89.7995%, 68.629456%)" d="M 25.804688 23.226562 L 25.804688 24.574219 L 25.109375 25.253906 L 25.109375 23.90625 L 25.804688 23.226562 " fill-opacity="1" fill-rule="nonzero"/><path fill="rgb(35.289001%, 89.7995%, 68.629456%)" d="M 24.222656 23.964844 L 24.222656 25.3125 L 23.757812 24.988281 L 23.757812 23.640625 L 24.222656 23.964844 " fill-opacity="1" fill-rule="nonzero"/><path fill="rgb(35.289001%, 89.7995%, 68.629456%)" d="M 24.414062 24.230469 L 24.414062 25.578125 L 24.222656 25.3125 L 24.222656 23.964844 L 24.414062 24.230469 " fill-opacity="1" fill-rule="nonzero"/><path fill="rgb(34.509277%, 86.669922%, 64.309692%)" d="M 24.878906 24.230469 L 24.878906 25.578125 L 24.414062 25.578125 L 24.414062 24.230469 L 24.878906 24.230469 " fill-opacity="1" fill-rule="nonzero"/><path fill="rgb(35.289001%, 89.7995%, 68.629456%)" d="M 25.109375 23.90625 L 25.109375 25.253906 L 24.878906 25.578125 L 24.878906 24.230469 L 25.109375 23.90625 " fill-opacity="1" fill-rule="nonzero"/><g clip-path="url(#clip-9)"><path fill="rgb(37.249756%, 97.648621%, 77.249146%)" d="M 21.980469 3.683594 L 22.597656 4.714844 L 22.871094 5.597656 L 23.679688 5.921875 L 23.875 6.71875 L 24.261719 7.101562 L 24.570312 8.046875 L 26.230469 9.046875 L 26.925781 10.050781 L 27.273438 10.050781 L 27.660156 10.316406 L 27.660156 10.699219 L 29.050781 11.96875 L 29.320312 12.707031 L 29.707031 13.589844 L 29.398438 14.238281 L 29.011719 15.535156 L 28.085938 16.804688 L 27.042969 18.898438 L 26.734375 19.8125 L 25.574219 19.929688 L 24.722656 20.578125 L 24.414062 20.753906 L 23.21875 20.167969 L 22.445312 20.492188 L 21.75 20.226562 L 20.707031 19.988281 L 20.050781 19.488281 L 19.894531 18.925781 L 19.394531 18.457031 L 18.390625 18.011719 L 17.730469 18.011719 L 16.882812 17.660156 L 16.804688 17.246094 L 15.605469 16.066406 L 14.527344 15.976562 L 13.714844 15.683594 L 12.324219 15.800781 L 11.242188 16.15625 L 10.199219 16.242188 L 9.308594 16.566406 L 8.5 17.1875 L 7.378906 17.1875 L 6.21875 17.21875 L 5.71875 17.570312 L 4.75 18.011719 L 3.671875 18.011719 L 2.9375 17.628906 L 2.550781 17.246094 L 2.976562 16.804688 L 3.128906 16.097656 L 2.511719 15.152344 L 2.511719 14.386719 L 2.125 13.914062 L 1.96875 13.324219 L 1.429688 12.644531 L 1.699219 12.117188 L 1.429688 11.289062 L 1.699219 10.050781 L 3.398438 9.34375 L 4.25 9.3125 L 5.445312 8.902344 L 7.03125 8.519531 L 7.648438 7.839844 L 7.648438 7.074219 L 9.195312 6.425781 L 9.425781 6.070312 L 10.46875 5.363281 L 11.398438 5.539062 L 11.667969 5.953125 L 12.324219 5.921875 L 12.75 5.480469 L 13.097656 4.65625 L 13.097656 4.066406 L 14.949219 3.976562 L 16.300781 4.390625 L 17.65625 4.300781 L 17.964844 4.625 L 17.035156 5.894531 L 18.078125 6.628906 L 19.429688 7.132812 L 20.398438 7.515625 L 20.746094 7.015625 L 21.246094 5.597656 L 21.480469 4.535156 L 21.480469 3.683594 L 21.980469 3.683594 " fill-opacity="1" fill-rule="nonzero"/></g><path fill="rgb(37.249756%, 97.648621%, 77.249146%)" d="M 23.835938 22.222656 L 24.492188 22.578125 L 25.34375 22.371094 L 25.804688 22.371094 L 25.804688 23.226562 L 25.109375 23.90625 L 24.878906 24.230469 L 24.414062 24.230469 L 24.222656 23.964844 L 23.757812 23.640625 L 23.757812 23.109375 L 23.449219 22.578125 L 23.449219 22.222656 L 23.835938 22.222656 " fill-opacity="1" fill-rule="nonzero"/></svg>